# xmcd
#
# Track frame offsets:
#	150
#	21254
#	34578
#	50613
#	61113
#	74396
#	85633
#	105978
#	120926
#	142239
#	158912
#	183815
#	197257
#	231307
#
# Disc length: 3195 seconds
#
# Revision: 0
# Processed by: cddbd v1.5.2PL0 Copyright (c) Steve Scherf et al.
# Submitted via: dBpowerAMP V4.0
#
DISCID=ae0c790e
DTITLE=Three Legged Mule - Three Legged Mule
DYEAR=2009
DGENRE=Blues
TTITLE0=Turn To Stone
TTITLE1=Passing Grass
TTITLE2=Black Ribbon Of Delight
TTITLE3=Salty Dawg
TTITLE4=Troubled Wind
TTITLE5=The Raven Song
TTITLE6=Drunken Sailor
TTITLE7=Nature Of The Sea
TTITLE8=The Liverpool Whaler
TTITLE9=Tinker Tailor
TTITLE10=Touched By The Hand
TTITLE11=Spin
TTITLE12=Step It Out Mary
TTITLE13=Dulcinea
EXTD=
EXTT0=
EXTT1=
EXTT2=
EXTT3=
EXTT4=
EXTT5=
EXTT6=
EXTT7=
EXTT8=
EXTT9=
EXTT10=
EXTT11=
EXTT12=
EXTT13=
PLAYORDER=
